<svg xmlns="http://www.w3.org/2000/svg" xmlns:xlink="http://www.w3.org/1999/xlink" width="60" zoomAndPan="magnify" viewBox="0 0 375 374.999991" height="60" preserveAspectRatio="xMidYMid meet" version="1.0"><defs><clipPath id="679a532dad"><path d="M 56.476562 93.878906 L 318.226562 93.878906 L 318.226562 281.378906 L 56.476562 281.378906 Z M 56.476562 93.878906 " clip-rule="nonzero"/></clipPath></defs><g clip-path="url(#679a532dad)"><path fill="#000000" d="M 303.207031 93.878906 C 301.542969 93.878906 299.882812 93.878906 298.21875 93.878906 L 72.949219 93.878906 C 65.675781 93.878906 58.816406 98.042969 57.15625 105.542969 C 56.738281 108.667969 56.53125 111.792969 56.738281 114.917969 L 56.738281 260.542969 C 56.53125 264.085938 56.738281 267.628906 57.570312 270.960938 C 59.855469 277.835938 66.300781 281.378906 73.15625 281.378906 L 303.207031 281.378906 C 303.621094 281.378906 304.039062 281.167969 304.453125 280.960938 C 312.765625 280.128906 318.167969 273.253906 318.167969 264.710938 L 318.167969 110.128906 C 318.167969 101.378906 312.144531 94.085938 303.207031 93.878906 Z M 61.933594 108.878906 C 62.144531 102.417969 67.128906 98.878906 73.15625 98.878906 L 281.59375 98.878906 C 288.660156 98.878906 295.933594 98.667969 303 98.878906 C 309.234375 99.085938 313.183594 103.878906 313.183594 109.917969 L 313.183594 128.042969 L 90.820312 128.042969 C 81.054688 128.042969 71.496094 127.628906 61.933594 128.042969 C 61.726562 121.792969 61.726562 115.335938 61.933594 108.878906 Z M 312.972656 265.960938 C 312.972656 271.378906 308.609375 275.753906 303 275.960938 C 302.792969 275.960938 302.582031 275.960938 302.582031 275.960938 L 74.195312 275.960938 C 69.832031 275.960938 65.46875 275.335938 63.183594 270.960938 C 61.519531 267.835938 61.933594 264.292969 61.933594 260.753906 L 61.933594 135.542969 C 61.933594 134.917969 61.933594 134.085938 61.933594 133.460938 L 284.089844 133.460938 C 293.855469 133.460938 303.414062 133.878906 312.972656 133.460938 L 312.972656 263.878906 C 312.972656 264.503906 312.972656 265.335938 312.972656 265.960938 Z M 312.972656 265.960938 " fill-opacity="1" fill-rule="nonzero"/></g><path fill="#000000" d="M 79.390625 115.960938 C 79.390625 115.753906 79.183594 115.753906 79.390625 115.960938 Z M 79.390625 115.960938 " fill-opacity="1" fill-rule="nonzero"/><path fill="#000000" d="M 89.574219 120.753906 C 91.027344 119.085938 91.652344 117.210938 91.652344 114.917969 C 91.652344 114.503906 91.652344 114.292969 91.652344 113.878906 C 91.238281 110.542969 88.949219 107.835938 85.832031 106.585938 C 82.507812 105.335938 78.558594 106.378906 76.273438 109.085938 C 73.15625 112.835938 73.574219 118.253906 77.105469 121.585938 C 80.847656 124.710938 86.25 124.292969 89.574219 120.753906 Z M 86.457031 114.292969 C 86.457031 114.292969 86.457031 114.503906 86.457031 114.292969 C 86.457031 114.503906 86.457031 114.503906 86.457031 114.503906 C 86.457031 114.503906 86.457031 114.503906 86.457031 114.292969 Z M 79.183594 114.292969 C 79.183594 114.085938 79.183594 114.085938 79.183594 113.878906 C 79.183594 113.667969 79.390625 113.460938 79.390625 113.042969 L 79.597656 112.628906 L 79.808594 112.210938 C 80.015625 112.003906 80.222656 111.792969 80.429688 111.585938 L 80.636719 111.585938 C 80.429688 111.792969 80.636719 111.585938 80.847656 111.585938 C 81.054688 111.378906 81.46875 111.378906 81.675781 111.167969 C 81.675781 111.167969 81.054688 111.378906 81.46875 111.167969 L 81.886719 110.960938 L 82.300781 110.960938 C 82.300781 110.960938 82.300781 110.960938 82.507812 110.960938 C 82.507812 110.960938 82.714844 110.960938 82.714844 110.960938 L 83.339844 110.960938 L 84.378906 111.167969 C 84.792969 111.378906 84.792969 111.378906 84.792969 111.378906 L 85.003906 111.585938 L 85.210938 111.792969 C 85.003906 111.585938 84.792969 111.585938 85.003906 111.792969 L 85.625 112.417969 C 85.625 112.628906 85.832031 112.628906 85.832031 112.835938 L 86.042969 113.253906 C 86.042969 113.460938 86.042969 113.667969 86.25 113.667969 C 86.25 113.878906 86.042969 114.085938 86.042969 114.292969 C 86.042969 114.503906 86.042969 114.503906 86.042969 114.710938 C 86.042969 114.917969 85.832031 115.335938 85.832031 115.542969 C 85.832031 115.542969 85.832031 115.753906 85.832031 115.753906 C 85.832031 115.753906 85.832031 115.753906 85.832031 115.960938 C 85.625 116.167969 85.417969 116.585938 85.417969 116.792969 C 85.417969 116.792969 85.210938 117.003906 85.210938 117.003906 C 85.210938 117.003906 85.003906 117.210938 85.003906 117.210938 L 84.792969 117.210938 C 84.585938 117.417969 84.585938 117.417969 84.792969 117.210938 C 84.585938 117.417969 84.378906 117.417969 84.378906 117.628906 L 84.171875 117.835938 L 83.132812 118.253906 C 82.925781 118.253906 82.925781 118.253906 82.714844 118.253906 L 81.886719 118.253906 C 81.675781 118.253906 81.46875 118.253906 81.46875 118.042969 L 81.054688 117.835938 C 80.636719 117.628906 81.261719 117.835938 81.261719 117.835938 C 81.261719 117.835938 80.636719 117.417969 80.636719 117.417969 L 80.222656 117.210938 C 80.222656 117.210938 79.597656 116.585938 79.597656 116.585938 L 79.390625 116.378906 L 79.390625 115.960938 C 79.390625 115.960938 79.390625 116.167969 79.390625 116.167969 C 79.390625 116.167969 79.183594 115.542969 79.183594 115.335938 Z M 79.183594 114.292969 " fill-opacity="1" fill-rule="nonzero"/><path fill="#000000" d="M 110.355469 120.335938 C 111.601562 118.878906 112.226562 117.003906 112.433594 115.128906 C 112.433594 114.917969 112.433594 114.917969 112.433594 114.710938 C 112.433594 114.710938 112.433594 114.503906 112.433594 114.503906 C 112.433594 110.753906 110.148438 107.417969 106.613281 106.167969 C 103.289062 104.917969 99.339844 105.960938 97.054688 108.667969 C 93.9375 112.417969 94.355469 117.835938 97.886719 121.167969 C 101.628906 124.503906 107.03125 124.085938 110.355469 120.335938 Z M 100.171875 114.292969 C 100.171875 114.085938 100.171875 114.085938 100.171875 113.878906 C 100.171875 113.667969 100.378906 113.460938 100.378906 113.042969 L 100.589844 112.628906 L 100.796875 112.210938 C 101.003906 112.003906 101.210938 111.792969 101.417969 111.585938 L 101.628906 111.585938 C 101.628906 111.585938 101.628906 111.585938 101.835938 111.585938 C 102.042969 111.378906 102.457031 111.378906 102.667969 111.167969 C 102.667969 111.167969 102.042969 111.378906 102.457031 111.167969 L 102.875 110.960938 L 103.289062 110.960938 C 103.289062 110.960938 103.289062 110.960938 103.496094 110.960938 C 103.496094 110.960938 103.707031 110.960938 103.707031 110.960938 L 104.121094 110.960938 L 105.160156 111.167969 C 105.574219 111.378906 105.574219 111.378906 105.574219 111.378906 C 105.574219 111.378906 105.785156 111.378906 105.785156 111.585938 C 105.785156 111.585938 105.785156 111.585938 105.992188 111.792969 L 106.613281 112.417969 C 106.613281 112.628906 106.824219 112.628906 106.824219 112.835938 L 107.03125 113.253906 C 107.238281 113.667969 107.238281 113.878906 107.238281 114.085938 C 107.238281 114.085938 107.238281 114.085938 107.238281 114.292969 C 107.238281 114.292969 107.238281 114.292969 107.238281 114.503906 C 107.238281 114.710938 107.238281 114.710938 107.238281 114.917969 C 107.238281 115.128906 107.03125 115.542969 107.03125 115.753906 C 107.03125 115.753906 107.03125 115.960938 107.03125 115.960938 C 107.03125 115.960938 107.03125 115.960938 107.03125 116.167969 L 106.613281 117.003906 C 106.613281 117.003906 106.40625 117.210938 106.40625 117.210938 L 106.199219 117.417969 C 105.992188 117.628906 105.992188 117.628906 106.199219 117.417969 C 105.992188 117.628906 105.785156 117.628906 105.785156 117.835938 L 105.574219 118.042969 L 104.328125 118.253906 C 104.121094 118.253906 104.121094 118.253906 103.914062 118.253906 L 102.457031 118.253906 L 102.042969 118.042969 C 101.628906 117.835938 102.25 118.042969 102.25 118.042969 C 102.25 118.042969 101.628906 117.628906 101.628906 117.628906 C 101.628906 117.628906 101.417969 117.417969 101.210938 117.417969 C 101.210938 117.417969 100.589844 116.792969 100.589844 116.792969 L 100.378906 116.585938 L 100.589844 116.378906 L 100.589844 116.167969 C 100.589844 115.960938 100.378906 115.960938 100.589844 116.167969 C 100.589844 115.960938 100.378906 115.753906 100.378906 115.542969 C 100.378906 115.542969 100.378906 115.335938 100.378906 115.128906 C 100.171875 114.917969 100.171875 114.503906 100.171875 114.292969 Z M 100.171875 114.292969 " fill-opacity="1" fill-rule="nonzero"/><path fill="#000000" d="M 100.171875 114.292969 C 100.378906 113.667969 100.171875 114.085938 100.171875 114.292969 Z M 100.171875 114.292969 " fill-opacity="1" fill-rule="nonzero"/><path fill="#000000" d="M 131.761719 120.753906 C 133.214844 119.085938 133.839844 117.210938 133.839844 114.917969 C 133.839844 114.503906 133.839844 114.292969 133.839844 113.878906 C 133.214844 110.542969 131.136719 107.835938 128.019531 106.585938 C 124.695312 105.335938 120.746094 106.378906 118.460938 109.085938 C 115.34375 112.835938 115.757812 118.253906 119.292969 121.585938 C 122.824219 124.917969 128.433594 124.292969 131.761719 120.753906 Z M 128.644531 114.292969 C 128.644531 114.292969 128.644531 114.503906 128.644531 114.292969 C 128.644531 114.503906 128.644531 114.503906 128.644531 114.503906 C 128.644531 114.503906 128.644531 114.503906 128.644531 114.292969 Z M 121.371094 114.292969 C 121.371094 114.292969 121.371094 114.085938 121.371094 113.878906 C 121.371094 113.667969 121.578125 113.253906 121.578125 113.042969 L 121.785156 112.628906 L 121.992188 112.210938 C 122.199219 112.003906 122.410156 111.792969 122.617188 111.585938 L 122.824219 111.585938 C 122.617188 111.792969 122.824219 111.585938 123.03125 111.585938 C 123.238281 111.378906 123.65625 111.378906 123.863281 111.167969 C 123.863281 111.167969 123.238281 111.378906 123.65625 111.167969 L 124.070312 110.960938 L 124.488281 110.960938 C 124.488281 110.960938 124.488281 110.960938 124.695312 110.960938 C 124.695312 110.960938 124.902344 110.960938 124.902344 110.960938 L 125.734375 110.960938 L 126.773438 111.167969 C 127.1875 111.378906 127.1875 111.378906 127.1875 111.378906 L 127.394531 111.585938 C 127.394531 111.585938 127.394531 111.585938 127.605469 111.792969 L 128.226562 112.417969 C 128.226562 112.628906 128.433594 112.628906 128.433594 112.835938 C 128.433594 113.042969 128.644531 113.042969 128.644531 113.253906 C 128.644531 113.460938 128.851562 113.667969 128.851562 113.878906 C 128.851562 114.085938 128.644531 114.292969 128.644531 114.503906 C 128.644531 114.710938 128.644531 114.710938 128.644531 114.917969 C 128.644531 115.128906 128.433594 115.542969 128.433594 115.753906 C 128.433594 115.753906 128.433594 115.753906 128.433594 115.960938 C 128.226562 116.167969 128.019531 116.585938 128.019531 116.792969 C 128.019531 116.792969 127.8125 117.003906 127.8125 117.003906 C 127.8125 117.003906 127.605469 117.210938 127.605469 117.210938 C 127.394531 117.417969 127.394531 117.417969 127.605469 117.210938 C 127.394531 117.417969 127.1875 117.417969 127.1875 117.628906 L 126.980469 117.835938 L 125.316406 118.253906 C 125.109375 118.253906 125.109375 118.253906 124.902344 118.253906 L 124.070312 118.253906 L 123.65625 118.042969 L 123.238281 117.835938 C 122.824219 117.835938 123.449219 117.835938 123.449219 117.835938 C 123.449219 117.835938 122.824219 117.417969 122.824219 117.417969 L 122.410156 117.210938 C 122.410156 117.210938 121.992188 116.792969 121.785156 116.585938 L 121.578125 116.167969 L 121.785156 115.960938 C 121.785156 115.753906 121.578125 115.335938 121.578125 115.128906 L 121.578125 114.710938 C 121.371094 114.710938 121.371094 114.503906 121.371094 114.292969 Z M 121.371094 114.292969 " fill-opacity="1" fill-rule="nonzero"/><path fill="#000000" d="M 125.316406 118.253906 C 125.316406 118.042969 124.902344 118.253906 125.316406 118.253906 Z M 125.316406 118.253906 " fill-opacity="1" fill-rule="nonzero"/><path fill="#000000" d="M 121.371094 114.292969 C 121.578125 113.667969 121.371094 114.085938 121.371094 114.292969 Z M 121.371094 114.292969 " fill-opacity="1" fill-rule="nonzero"/><path fill="#000000" d="M 218.003906 177.835938 C 215.925781 175.335938 212.183594 179.085938 214.261719 181.585938 L 234.421875 204.710938 L 214.261719 227.835938 C 211.976562 230.335938 215.71875 234.085938 218.003906 231.585938 L 239.824219 206.585938 C 240.863281 205.542969 240.863281 203.878906 239.824219 202.835938 Z M 218.003906 177.835938 " fill-opacity="1" fill-rule="nonzero"/><path fill="#000000" d="M 156.90625 177.835938 L 135.292969 202.835938 C 134.253906 203.878906 134.253906 205.542969 135.292969 206.585938 L 156.90625 231.585938 C 159.191406 234.085938 162.726562 230.335938 160.648438 227.835938 L 140.488281 204.710938 L 160.648438 181.585938 C 162.933594 179.085938 159.191406 175.335938 156.90625 177.835938 Z M 156.90625 177.835938 " fill-opacity="1" fill-rule="nonzero"/><path fill="#000000" d="M 197.636719 178.253906 L 176.023438 222.003906 L 172.90625 228.253906 C 171.453125 231.167969 175.816406 233.878906 177.480469 230.960938 L 202.417969 180.960938 C 203.457031 178.042969 199.09375 175.335938 197.636719 178.253906 Z M 197.636719 178.253906 " fill-opacity="1" fill-rule="nonzero"/></svg>